<?xml version="1.0" encoding="utf-8"?>
<!-- Generator: Adobe Illustrator 21.1.0, SVG Export Plug-In . SVG Version: 6.00 Build 0)  -->
<svg version="1.1" id="Layer_1" xmlns="http://www.w3.org/2000/svg" xmlns:xlink="http://www.w3.org/1999/xlink" x="0px" y="0px"
	 viewBox="0 0 503 374" style="enable-background:new 0 0 503 374;" xml:space="preserve">
<style type="text/css">
	.st0{fill:#3F3091;}
	.st1{fill:#9486EB;fill-opacity:0.55;}
	.st2{fill:#8274CF;}
	.st3{fill:#8B7BE0;}
	.st4{fill-opacity:0.1;}
	.st5{fill:#FFFFFF;fill-opacity:0.2;}
	.st6{fill:#DEDEDE;}
	.st7{fill:#9B90D9;}
	.st8{fill:#2A2445;}
	.st9{fill:#F5F5F5;}
	.st10{fill:#252387;}
	.st11{fill:#141D6E;}
	.st12{fill:#D4CCFF;fill-opacity:0.2;}
	.st13{fill:#7B7FD1;}
	.st14{fill:url(#SVGID_1_);}
	.st15{fill:#FFFFFF;}
	.st16{fill:#EEA481;}
	.st17{fill:#FCB692;}
	.st18{fill:#A67862;}
	.st19{fill:#4F4F4F;}
	.st20{fill:#946E5C;}
	.st21{fill:#EBE8FF;fill-opacity:0.2;}
	.st22{fill:#FFFFFF;fill-opacity:0.6;}
	.st23{opacity:0.4;fill:#FFFFFF;enable-background:new    ;}
	.st24{fill:none;}
	.st25{opacity:0.6;fill:#FFFFFF;enable-background:new    ;}
	.st26{fill:#433493;}
	.st27{fill:#8779D1;}
	.st28{fill:#A99DED;}
	.st29{fill:#A096DB;}
	.st30{fill:#B7ADF7;}
	.st31{fill:#9485D3;}
</style>
<path id="Rectangle_2.12" class="st0" d="M63.9,235.4c0-10.9,8.8-19.7,19.7-19.7h66c16.3,0,29.5,13.2,29.5,29.5v80.6
	c0,5.4-4.4,9.8-9.8,9.8H83.6c-10.9,0-19.7-8.8-19.7-19.7V235.4z"/>
<path id="Rectangle_2.13" class="st1" d="M104.1,234c0-10.1-8.2-18.2-18.3-18.2h-2.2l70.1,0c10.1,0,18.2,8.2,18.2,18.2H104.1z"/>
<path id="Rectangle_2" class="st0" d="M114.1,259h236.3v80.6H114.1V259z"/>
<path id="Rectangle" class="st2" d="M159,175.3c0.6-5,4.8-8.7,9.8-8.7h114.1l-11,95.9H148.9L159,175.3z"/>
<path id="Rectangle_2_1_" class="st3" d="M270.3,175.3c0.6-5,4.8-8.7,9.8-8.7H436l-11,95.9H260.3L270.3,175.3z"/>
<path id="Ellipse" class="st4" d="M502.7,336.5c0,20.7-112.5,37.5-251.3,37.5S0,357.2,0,336.5S112.5,299,251.3,299
	S502.7,315.8,502.7,336.5z"/>
<path id="Rectangle_3" class="st0" d="M418.5,175.3c0.6-5,4.8-8.7,9.8-8.7h21c5.9,0,10.5,5.1,9.8,11l-9.8,84.9h-40.8L418.5,175.3z"
	/>
<path id="Rectangle_2.10" class="st2" d="M63.9,235.4c0-10.9,8.8-19.7,19.7-19.7h4.9c10.9,0,19.7,8.8,19.7,19.7v92.4
	c0,5.4-4.4,9.8-9.8,9.8H73.8c-5.4,0-9.8-4.4-9.8-9.8V235.4z"/>
<path class="st2" d="M63.9,235.4c0-10.9,8.8-19.7,19.7-19.7h4.9c10.9,0,19.7,8.8,19.7,19.7v1.6c0,0-3.3-12-16.7-12.2
	c-13.4-0.3-16.7,11.7-16.7,11.7L75,337.7h-1.2c-5.4,0-9.8-4.4-9.8-9.8V235.4z"/>
<path class="st5" d="M63.9,235.4c0-10.9,8.8-19.7,19.7-19.7h4.9c10.9,0,19.7,8.8,19.7,19.7v1.6c0,0-3.3-12-16.7-12.2
	c-13.4-0.3-16.7,11.7-16.7,11.7L75,337.7h-1.2c-5.4,0-9.8-4.4-9.8-9.8V235.4z"/>
<path id="Rectangle_2.8" class="st2" d="M100.4,325.9c0-6.5,5.3-11.8,11.8-11.8h214.6c0,0-6.2,3.9-6.2,11.8s6.2,11.8,6.2,11.8H112.2
	C105.7,337.7,100.4,332.4,100.4,325.9z"/>
<path id="Rectangle_4.3" class="st6" d="M295.8,134.2c2.8-10.4,13.6-15.7,21.1-13.2c7.4,2.5,6.8,11.8,5.5,19.5l-11.6,72.9
	c-1.5,9.2-11,14.7-19.7,11.5l-9.9-3.7L295.8,134.2z"/>
<path id="Rectangle_2.9" class="st7" d="M100.4,325.9c0-6.5,5.3-11.8,11.8-11.8h20.3c0,0-6.6,5-6.6,11.8s6.6,11.8,6.6,11.8h-20.3
	C105.7,337.7,100.4,332.4,100.4,325.9z"/>
<path id="Vector" class="st8" d="M143.8,350.4l68.3,0c0-7.9,0.2-16.8-17.2-17.5c-27.2-1.1-44.3,6.5-53,12
	C139,346.8,140.4,350.4,143.8,350.4z"/>
<path id="Vector_2" class="st8" d="M216.4,357.9l60.5-7.5c-0.7-7.6,0.6-14.3-15.6-13.5c-24.8,1.3-39.8,9.7-47.5,15.8
	C211.2,354.9,213,358.3,216.4,357.9z"/>
<path id="Rectangle_2.4" class="st2" d="M88.6,282.6c0-10.9,8.8-19.7,19.7-19.7h217.6c0,0-10.4,9.8-10.4,24.6
	c0,14.8,10.4,24.6,10.4,24.6H108.2c-10.9,0-19.7-8.8-19.7-19.7V282.6z"/>
<path id="Rectangle_2.7" class="st7" d="M92.5,282.6c0-10.9,8.8-19.7,19.7-19.7h20.4c0,0-11,9.8-11,24.6c0,14.8,11,24.6,11,24.6
	h-20.4c-10.9,0-19.7-8.8-19.7-19.7V282.6z"/>
<path id="Rectangle_4" class="st9" d="M297.1,138.5c0.6-10.7,9.6-18.9,20.3-18.5l39.7,1.3c11.7,0.4,20.5,10.8,18.9,22.4l-9.9,71.2
	l-73.1-3.1L297.1,138.5z"/>
<path id="Union" class="st6" d="M364.4,121.8c-7.8-1.2-14.8,4.8-14.8,12.6l0.3,66.9l-83.6-2.1l-3.5,26L354,225c0.7,0,1.3,0,2-0.1
	l4.3,0.9c9.1,1.8,17.6-5.2,17.6-14.5l-0.2-73.8C377.8,129.6,372.1,123,364.4,121.8z"/>
<path id="Union_2" class="st10" d="M255.2,260l20,80.5l-38,0.3l-25.5-94.2c-1.2-4.3-0.8-8.7,0.8-12.5c2.6-7.9,10-13.6,18.7-13.6
	h49.2c10.9,0,19.7,8.8,19.7,19.7c0,10.9-8.8,19.7-19.7,19.7H255.2z"/>
<path id="Union_3" class="st11" d="M275.4,260l-61.9,81.4L178.2,331l69.8-98.9c1.4-2,3.2-3.7,5.1-5c3.6-4,8.8-6.5,14.6-6.5h63
	c10.9,0,19.7,8.8,19.7,19.7c0,10.9-8.8,19.7-19.7,19.7H275.4z"/>
<path id="Rectangle_2.14" class="st0" d="M329.7,235.4c0-10.9,8.8-19.7,19.7-19.7h66c16.3,0,29.5,13.2,29.5,29.5v84.6
	c0,5.4-4.4,9.8-9.8,9.8h-85.6c-10.9,0-19.7-8.8-19.7-19.7V235.4z"/>
<path id="Rectangle_2.6" class="st12" d="M372.1,234c0-10.1-8.2-18.2-18.3-18.2h-2.2l70.1,0c10.1,0,18.2,8.2,18.2,18.2H372.1z"/>
<path id="Rectangle_2.2" class="st2" d="M328.8,235.4c0-10.9,8.8-19.7,19.7-19.7h4.9c10.9,0,19.7,8.8,19.7,19.7v94.4
	c0,5.4-4.4,9.8-9.8,9.8h-24.6c-5.4,0-9.8-4.4-9.8-9.8V235.4z"/>
<path class="st2" d="M328.8,235.4c0-10.9,8.8-19.7,19.7-19.7h4.9c10.9,0,19.7,8.8,19.7,19.7v1.9c0,0-3.3-12.2-16.7-12.4
	c-13.4-0.3-16.7,11.9-16.7,11.9l0.2,102.9h-1.2c-5.4,0-9.8-4.4-9.8-9.8V235.4z"/>
<path class="st5" d="M328.8,235.4c0-10.9,8.8-19.7,19.7-19.7h4.9c10.9,0,19.7,8.8,19.7,19.7v1.9c0,0-3.3-12.2-16.7-12.4
	c-13.4-0.3-16.7,11.9-16.7,11.9l0.2,102.9h-1.2c-5.4,0-9.8-4.4-9.8-9.8V235.4z"/>
<path id="Rectangle_2_x5F_2" class="st13" d="M277.6,217.7h47.7l2.5,3h-50.2V217.7z"/>
<linearGradient id="SVGID_1_" gradientUnits="userSpaceOnUse" x1="-164.2796" y1="794.0857" x2="-163.2796" y2="794.0857" gradientTransform="matrix(6.682102e-15 65.8845 109.127 -4.034262e-15 -86415.6094 10978.2432)">
	<stop  offset="0" style="stop-color:#D6D8FF"/>
	<stop  offset="1" style="stop-color:#BFC2FF"/>
	<stop  offset="1" style="stop-color:#BFC2FF"/>
</linearGradient>
<path class="st14" d="M185.2,157.5c-0.5-1.3,0.4-2.7,1.8-2.7h80.4c0.8,0,1.5,0.5,1.8,1.2l26.9,64.7h-83.3c-0.8,0-1.5-0.5-1.8-1.2
	L185.2,157.5z"/>
<path class="st15" d="M237,184.2c0.8,3.2-0.4,6.3-2.7,6.9c-2.3,0.6-4.8-1.6-5.6-4.8c-0.8-3.2,0.4-6.3,2.7-6.9
	C233.7,178.8,236.2,181,237,184.2z"/>
<path id="path4_fill" class="st16" d="M319.5,90l23.4-1.4l1.8,30.5c0.3,5.1-4.6,8.4-9,8.7l-4.4,0.3c-4.4,0.3-9.7-2.5-10-7.5
	L319.5,90z"/>
<path id="path3_fill" class="st16" d="M307,77.5c0.1,3.6-0.6,13.1-0.6,13.1c-1.7,0-3.4-0.6-4.7-1.8c-1.3-1.2-2-2.8-2-4.6
	C299.6,80.6,302.2,77.6,307,77.5z"/>
<path id="path5_fill" class="st17" d="M318.4,43.1l12.9-0.3c9.7-0.2,15.8,7.6,16,18.1l0.8,31.4c0,11.8-12.1,21.7-21.9,21.9l-0.8,0
	c-14.1,0.7-22.2-12.7-22.5-23.2l-1.2-27.3C301.5,53.7,308.7,43.4,318.4,43.1z"/>
<path id="path6_fill" class="st18" d="M333.9,71.1c0,0.3,0,0.6-0.1,0.8s-0.2,0.5-0.4,0.7c-0.2,0.2-0.4,0.4-0.7,0.5
	c-0.3,0.1-0.5,0.2-0.8,0.2l-7.1,0.5c-0.6,0-1.1-0.2-1.5-0.5c-0.4-0.4-0.7-0.9-0.7-1.4c0-0.6,0.1-1.1,0.5-1.5
	c0.4-0.4,0.9-0.7,1.4-0.8l7.1-0.5c0.6,0,1.1,0.2,1.6,0.5C333.6,70,333.9,70.5,333.9,71.1z"/>
<path id="brown_2" class="st18" d="M315.1,72.4c0,0.3,0,0.6-0.1,0.8c-0.1,0.3-0.2,0.5-0.4,0.7c-0.2,0.2-0.4,0.4-0.7,0.5
	c-0.3,0.1-0.5,0.2-0.8,0.2l-6.1,0.6c-0.6,0-1.1-0.2-1.5-0.5c-0.4-0.4-0.7-0.9-0.7-1.4c0-0.6,0.1-1.1,0.5-1.5s0.9-0.7,1.4-0.8
	l6.1-0.6c0.6,0,1.1,0.2,1.6,0.5C314.8,71.3,315.1,71.8,315.1,72.4z"/>
<path id="path7_fill" class="st19" d="M311.1,80.5c-0.5,0-1,0.2-1.3,0.6s-0.5,0.9-0.5,1.4c0,0.1,0,0.3-0.1,0.4
	c0,0.1-0.1,0.2-0.2,0.3c-0.1,0.1-0.2,0.2-0.3,0.2s-0.2,0.1-0.4,0.1c-0.1,0-0.2,0-0.4-0.1c-0.1,0-0.2-0.1-0.3-0.2
	c-0.1-0.1-0.2-0.2-0.2-0.3c-0.1-0.1-0.1-0.2-0.1-0.4c0-0.5,0-1,0.2-1.5c0.2-0.5,0.4-0.9,0.8-1.3s0.8-0.7,1.2-0.9
	c0.5-0.2,1-0.3,1.5-0.3c0.5,0,1,0.1,1.5,0.3c0.5,0.2,0.9,0.5,1.3,0.8c0.4,0.4,0.6,0.8,0.8,1.3c0.2,0.5,0.3,1,0.3,1.5
	c0,0.3-0.1,0.5-0.3,0.7c-0.2,0.2-0.4,0.3-0.7,0.3c-0.3,0-0.5-0.1-0.7-0.3c-0.2-0.2-0.3-0.4-0.3-0.7c0-0.3-0.1-0.5-0.2-0.7
	s-0.2-0.4-0.4-0.6c-0.2-0.2-0.4-0.3-0.6-0.4C311.6,80.6,311.4,80.5,311.1,80.5z"/>
<path id="path7_fill_x5F_2" class="st19" d="M328.3,79.4c-0.5,0-1,0.2-1.3,0.6c-0.3,0.4-0.5,0.9-0.5,1.4c0,0.3-0.1,0.5-0.3,0.7
	c-0.2,0.2-0.4,0.3-0.7,0.3c-0.3,0-0.5-0.1-0.7-0.3c-0.2-0.2-0.3-0.4-0.3-0.7c0-0.5,0-1,0.2-1.5s0.4-0.9,0.8-1.3
	c0.3-0.4,0.8-0.7,1.2-0.9c0.5-0.2,1-0.3,1.5-0.3c0.5,0,1,0.1,1.5,0.3c0.5,0.2,0.9,0.5,1.3,0.8c0.4,0.4,0.6,0.8,0.8,1.3
	c0.2,0.5,0.3,1,0.3,1.5c0,0.3-0.1,0.5-0.3,0.7c-0.2,0.2-0.4,0.3-0.7,0.3s-0.5-0.1-0.7-0.3c-0.2-0.2-0.3-0.4-0.3-0.7
	c0-0.3-0.1-0.5-0.2-0.7c-0.1-0.2-0.2-0.4-0.4-0.6c-0.2-0.2-0.4-0.3-0.6-0.4C328.8,79.4,328.5,79.4,328.3,79.4z"/>
<path id="hair" class="st20" d="M299.6,49.5l1.4,29.7l1.6-0.5l-0.4-18.2c0-2,1.9-2.9,2.8-3.1l22-1.3c1.6,4,4.9,6.3,11.8,5.8
	l1.7,18.9l3.7-0.3l2.4-1l1.4,12.7l5.2-4.9l-1-27.8c6.2-0.5,7.4-5.8,6.6-11.5L348,48.5c6.2-4.4,5.2-9.9,5.2-12.4
	c-12.2,0.5-33.5,1.4-41.3,2C304.2,38.7,300.5,46,299.6,49.5z"/>
<path id="path3_fill_x5F_2" class="st16" d="M344.5,76.3l0.9,12.7c1.7,0,3.4-0.8,4.6-2c1.2-1.2,1.9-2.9,1.8-4.6
	C351.8,78.7,350.1,74.8,344.5,76.3z"/>
<path id="Vector_3" class="st15" d="M329.2,94.8c-0.2,3.2-3.3,7.6-6.5,8.1c-0.8,0.1-1.6,0.2-2.4,0.2c-2.8,0.1-4.7-1-6.7-2.7
	c-1.3-1.1-2.6-3.9-2.5-5.1L329.2,94.8z"/>
<path id="Rectangle_5" class="st5" d="M134.5,97.7c0-4.3-3.5-7.9-7.9-7.9H93.5c-4.3,0-7.9,3.5-7.9,7.9V121c0,4.3,3.5,7.9,7.9,7.9
	h33.1c4.3,0,7.9-3.5,7.9-7.9V97.7z"/>
<path id="Rectangle_5.2" class="st5" d="M189.6,57.8c0-4.3-3.5-7.9-7.9-7.9h-26c-4.3,0-7.9,3.5-7.9,7.9v21.1c0,4.3,3.5,7.9,7.9,7.9
	h26c4.3,0,7.9-3.5,7.9-7.9V57.8z"/>
<path id="Rectangle_5.3" class="st5" d="M262.4,42.7c0-4.3-3.5-7.9-7.9-7.9h-42.3c-4.3,0-7.9,3.5-7.9,7.9v25.6
	c0,4.3,3.5,7.9,7.9,7.9h42.3c4.3,0,7.9-3.5,7.9-7.9V42.7z"/>
<path id="Rectangle_5.4" class="st5" d="M191.9,13.2c0-4.3-3.5-7.9-7.9-7.9H125c-4.3,0-7.9,3.5-7.9,7.9v16.7c0,4.3,3.5,7.9,7.9,7.9
	H184c4.3,0,7.9-3.5,7.9-7.9V13.2z"/>
<path id="Rectangle_5.6" class="st21" d="M132.6,54.5c0-4.3-3.5-7.9-7.9-7.9h-20c-4.3,0-7.9,3.5-7.9,7.9V68c0,4.3,3.5,7.9,7.9,7.9
	h20c4.3,0,7.9-3.5,7.9-7.9V54.5z"/>
<path class="st22" d="M123,65.7l-4.7-2.9c-0.4-0.3-1-0.3-1.4,0c0.6-1.1,0.8-2.5,0.5-3.8c-0.7-3.1-3.8-5.1-6.9-4.4
	c-3.1,0.7-5.1,3.8-4.4,6.9c0.7,3.1,3.8,5.1,6.9,4.4c1.3-0.3,2.5-1,3.3-2c0,0.5,0.2,1,0.6,1.3l4.7,2.9c0.6,0.4,1.5,0.2,1.9-0.4
	C123.8,67,123.6,66.1,123,65.7z M112.3,62.9c-1.6,0.3-3.1-0.6-3.4-2.1c-0.3-1.5,0.6-3,2.2-3.3c1.6-0.3,3.1,0.6,3.4,2.1
	C114.8,61.1,113.9,62.6,112.3,62.9z"/>
<path id="Rectangle_5.5" class="st5" d="M236.3,7.9c0-4.3-3.5-7.9-7.9-7.9H212c-4.3,0-7.9,3.5-7.9,7.9v10.3c0,4.3,3.5,7.9,7.9,7.9
	h16.4c4.3,0,7.9-3.5,7.9-7.9V7.9z"/>
<path id="Vector_4" class="st22" d="M228.8,5.7c0.3-0.2,0.8-0.1,1,0.2c0.1,0.2,0.1,0.4-0.1,0.6c-3.8,3.8-6.8,7.7-9.5,13.2
	c-0.3,0.6-1.1,0.8-1.6,0.3c-2.1-2.2-4.2-4.5-5.4-5.8c-0.5-0.6-0.5-1.4,0.1-1.9c0.5-0.4,1.3-0.5,1.8,0l3.4,2.9
	C221.6,11.3,224.7,8.5,228.8,5.7z"/>
<path id="Rectangle_5.1" class="st5" d="M146.9,105.5c0-4.3,3.5-7.9,7.9-7.9h49.8c4.3,0,7.9,3.5,7.9,7.9v39.8l-7-7.3
	c-1.5-1.6-3.5-2.4-5.7-2.4h-45c-4.3,0-7.9-3.5-7.9-7.9V105.5z"/>
<path id="Rectangle_5.7" class="st23" d="M194.9,122.6c1.1,0,2-0.9,2-2v-0.5c0-1.1-0.9-2-2-2h-12.2c-1.1,0-2,0.9-2,2v0.5
	c0,1.1,0.9,2,2,2H194.9z"/>
<path id="Rectangle_5.8" class="st23" d="M201.4,114c1.1,0,2-0.9,2-2v-0.5c0-1.1-0.9-2-2-2h-18.7c-1.1,0-2,0.9-2,2v0.5
	c0,1.1,0.9,2,2,2H201.4z"/>
<path id="Rectangle_5.1_x5F_2" class="st5" d="M273.4,93.8c0-4.3-3.5-7.9-7.9-7.9h-33.6c-4.3,0-7.9,3.5-7.9,7.9v35.5l6.8-6.2
	c1.5-1.3,3.4-2.1,5.3-2.1h29.4c4.3,0,7.9-3.5,7.9-7.9V93.8z"/>
<path class="st24" d="M244.2,50H242l-0.1,0c-0.1,0.5-0.1,1.1-0.2,1.6c-0.2,1.5-0.6,3.1-1.1,4.6c0.8,0.1,1.2,0.1,2-0.5
	c0.8-0.7,1.3-1.5,1.7-2.5c0.4-1,0.6-1.9,0.6-2.5c0-0.3-0.1-0.4-0.2-0.5C244.4,50.1,244.3,50,244.2,50z"/>
<path class="st25" d="M244.2,47.7h-2c0-0.6,0.1-1.2,0.1-1.7c0-0.8,0-1.4,0-1.8l0-0.5l0-0.1v0l0,0c0-0.6-0.5-1.1-1.1-1.1h-15.2
	c-0.6,0-1.1,0.5-1.1,1.1l0,0l0,0.1l0,0.5c0,0.4,0,1.1,0,1.8c0,0.5,0,1.1,0.1,1.7h-2.5c-1.2,0-2.9,0.9-2.9,3c0,1,0.4,2.3,1.1,3.4
	c0.6,1.1,1.5,2.3,2.5,3.2c1,0.8,1.9,1,2.8,1c0.4,0,0.7-0.1,1-0.1l0.1,0l0.3,0c0.9,1.8,2.2,3.4,4.2,4l0.2,0.1v4.3l-3.6,0
	c-0.9,0-1.7,0.8-1.7,1.7c0,1,0.8,1.7,1.7,1.7l10.5,0c0.9,0,1.7-0.8,1.7-1.7c0-1-0.8-1.7-1.7-1.7l-3.6,0v-4.2c0.2,0,0.4-0.1,0.6-0.2
	c1.8-0.6,3.1-2,4-3.6l0,0c0.1,0,0.2,0,0.4,0c0.9,0.1,2.5,0.3,4-1.1c1-0.9,1.8-2.2,2.3-3.4c0.5-1.2,0.7-2.5,0.7-3.4
	C247,48.6,245.3,47.7,244.2,47.7z M225.7,55.9c-0.4,0-0.7-0.1-1.2-0.5c-0.8-0.7-1.5-1.6-2-2.5c-0.5-1-0.8-1.8-0.8-2.3
	c0-0.3,0.1-0.4,0.2-0.5c0.1-0.1,0.3-0.2,0.4-0.2h2.7c0.1,0.5,0.1,1.1,0.2,1.6c0.2,1.4,0.5,2.9,1,4.2
	C226.1,55.9,225.9,55.9,225.7,55.9z M238.8,50.2l-1.9,1.4c-0.3,0.2-0.4,0.6-0.3,0.9l0.7,2.2c0.2,0.7-0.6,1.3-1.2,0.9l-1.9-1.4
	c-0.3-0.2-0.6-0.2-0.9,0l-1.9,1.4c-0.6,0.4-1.4-0.2-1.2-0.9l0.7-2.2c0.1-0.3,0-0.7-0.3-0.9l-1.9-1.4c-0.6-0.4-0.3-1.4,0.5-1.4h2.4
	c0.3,0,0.6-0.2,0.7-0.5l0.7-2.2c0.2-0.7,1.3-0.7,1.5,0l0.7,2.2c0.1,0.3,0.4,0.5,0.7,0.5h2.4C239.1,48.7,239.4,49.7,238.8,50.2z
	 M244.2,53.2c-0.4,1-0.9,1.9-1.7,2.5c-0.7,0.6-1.2,0.6-2,0.5c0.5-1.5,0.9-3.1,1.1-4.6c0.1-0.6,0.2-1.1,0.2-1.6l0.1,0h2.2
	c0.1,0,0.3,0,0.4,0.2c0.1,0.1,0.2,0.2,0.2,0.5C244.8,51.3,244.6,52.2,244.2,53.2z"/>
<path id="Union_5" class="st22" d="M116.7,101.7c-1.1,0-2,0.9-2,2v10.8c0,1.1,0.9,2,2,2h0.4c1.1,0,2-0.9,2-2v-10.8c0-1.1-0.9-2-2-2
	H116.7z M107.6,107.8c0-1.1,0.9-2,2-2h0.4c1.1,0,2,0.9,2,2v6.6c0,1.1-0.9,2-2,2h-0.4c-1.1,0-2-0.9-2-2V107.8z M100.4,112.8
	c0-1.1,0.9-2,2-2h0.4c1.1,0,2,0.9,2,2v1.7c0,1.1-0.9,2-2,2h-0.4c-1.1,0-2-0.9-2-2V112.8z"/>
<path id="Polygon" class="st22" d="M163.4,62.1c0-0.8,0.8-1.2,1.5-0.8l11.3,6.6c0.6,0.4,0.6,1.3,0,1.7l-11.3,6.6
	c-0.7,0.4-1.5-0.1-1.5-0.8V62.1z"/>
<path id="Ellipse_2_1_" class="st23" d="M177.2,116.4c0,6-4.8,10.8-10.8,10.8c-6,0-10.8-4.8-10.8-10.8c0-6,4.8-10.8,10.8-10.8
	C172.3,105.6,177.2,110.4,177.2,116.4z"/>
<path class="st24" d="M246.5,97.2c0.8,0.2,1.6,0.3,2.4,0.3l0.1,0l0.1,0c0.8,0,1.6-0.1,2.4-0.3c0.8-0.2,1.6-0.3,2.5-0.3
	c1.4,0,2.8,0.4,3.3,0.5c-1.7-2.8-4.8-4.6-8.3-4.6s-6.6,1.8-8.3,4.6c0.5-0.1,1.9-0.5,3.3-0.5C244.9,96.9,245.7,97.1,246.5,97.2z"/>
<path class="st22" d="M255,103.7c-0.5-0.1-1.1,0.2-1.2,0.7c-0.5,2.1-2.7,3.4-4.8,2.9c-0.5-0.1-1.1,0.2-1.2,0.7
	c-0.1,0.5,0.2,1.1,0.7,1.2c3.2,0.8,6.4-1.1,7.2-4.3C255.9,104.3,255.6,103.8,255,103.7z"/>
<path class="st22" d="M249,90.8c-6.5,0-11.8,5.3-11.8,11.8s5.3,11.8,11.8,11.8s11.8-5.3,11.8-11.8S255.5,90.8,249,90.8z M249,92.8
	c3.5,0,6.6,1.8,8.3,4.6c-0.5-0.1-1.9-0.5-3.3-0.5c-0.8,0-1.7,0.2-2.5,0.3c-0.8,0.2-1.6,0.3-2.4,0.3l-0.1,0l-0.1,0
	c-0.8,0-1.6-0.1-2.4-0.3c-0.8-0.2-1.6-0.3-2.5-0.3c-1.4,0-2.8,0.4-3.3,0.5C242.4,94.6,245.5,92.8,249,92.8z M249,112.5
	c-5.4,0-9.8-4.4-9.8-9.8c0-1.8,0.5-3.5,1.3-5v0.6c0,0,0.4,0.4,0.5,0.7c0,0.1,0.1,0.2,0.1,0.3l0,0.2l0,0c0.2,0.7,0.5,1.9,0.8,2.1
	c0,0,0.1,0.1,0.1,0.2l0,0c0.3,0.4,0.7,1,2.6,1c2.9-0.1,3.6-2.9,3.7-3.6l0-0.1c0.1-0.3,0.3-0.3,0.5-0.3l0,0l0,0c0.2,0,0.5,0,0.5,0.3
	l0,0.1c0.2,0.7,0.8,3.5,3.7,3.6c1.9,0,2.3-0.6,2.6-1l0,0c0-0.1,0.1-0.1,0.1-0.2c0.2-0.3,0.6-1.4,0.8-2.1l0,0l0-0.2
	c0-0.2,0.1-0.3,0.1-0.3c0.1-0.3,0.5-0.7,0.5-0.7v-0.6c0.8,1.5,1.3,3.1,1.3,5C258.9,108.1,254.5,112.5,249,112.5z"/>
<path id="Star" class="st22" d="M132.8,27c-0.3-0.2-0.6-0.2-0.9,0l-3.3,1.8c-0.7,0.4-1.6-0.2-1.4-1l0.6-3.8c0.1-0.3-0.1-0.6-0.3-0.9
	l-2.7-2.7c-0.6-0.6-0.3-1.6,0.5-1.7l3.7-0.6c0.3,0,0.6-0.3,0.7-0.5l1.7-3.4c0.4-0.7,1.4-0.7,1.8,0l1.7,3.4c0.1,0.3,0.4,0.5,0.7,0.5
	l3.7,0.6c0.8,0.1,1.1,1.1,0.5,1.7l-2.7,2.7c-0.2,0.2-0.3,0.5-0.3,0.9l0.6,3.8c0.1,0.8-0.7,1.4-1.4,1L132.8,27z"/>
<path id="Star_2" class="st22" d="M154.6,27c-0.3-0.2-0.6-0.2-0.9,0l-3.3,1.8c-0.7,0.4-1.6-0.2-1.4-1l0.6-3.8
	c0.1-0.3-0.1-0.6-0.3-0.9l-2.7-2.7c-0.6-0.6-0.3-1.6,0.5-1.7l3.7-0.6c0.3,0,0.6-0.3,0.7-0.5l1.7-3.4c0.4-0.7,1.4-0.7,1.8,0l1.7,3.4
	c0.1,0.3,0.4,0.5,0.7,0.5l3.7,0.6c0.8,0.1,1.1,1.1,0.5,1.7L159,23c-0.2,0.2-0.3,0.5-0.3,0.9l0.6,3.8c0.1,0.8-0.7,1.4-1.4,1L154.6,27
	z"/>
<path id="Star_3" class="st22" d="M176.3,27c-0.3-0.2-0.6-0.2-0.9,0l-3.3,1.8c-0.7,0.4-1.6-0.2-1.4-1l0.6-3.8
	c0.1-0.3-0.1-0.6-0.3-0.9l-2.7-2.7c-0.6-0.6-0.3-1.6,0.5-1.7l3.7-0.6c0.3,0,0.6-0.3,0.7-0.5l1.7-3.4c0.4-0.7,1.4-0.7,1.8,0l1.7,3.4
	c0.1,0.3,0.4,0.5,0.7,0.5l3.7,0.6c0.8,0.1,1.1,1.1,0.5,1.7l-2.7,2.7c-0.2,0.2-0.3,0.5-0.3,0.9l0.6,3.8c0.1,0.8-0.7,1.4-1.4,1
	L176.3,27z"/>
<path id="Rectangle_5_1_" class="st26" d="M392.7,255.1c0-3.3,2.6-5.9,5.9-5.9h98.4c3.3,0,5.9,2.6,5.9,5.9v77.7
	c0,3.3-2.6,5.9-5.9,5.9h-98.4c-3.3,0-5.9-2.6-5.9-5.9V255.1z"/>
<path id="Rectangle__x28_Stroke_x29_" class="st27" d="M464.3,295.9h-63v-3.9h63v-36.9c0-1.1-0.9-2-2-2h-63.7c-1.1,0-2,0.9-2,2v77.7
	c0,1.1,0.9,2,2,2h63.7c1.1,0,2-0.9,2-2V295.9z M468.2,255.1c0-3.3-2.6-5.9-5.9-5.9h-63.7c-3.3,0-5.9,2.6-5.9,5.9v77.7
	c0,3.3,2.6,5.9,5.9,5.9h63.7c3.3,0,5.9-2.6,5.9-5.9V255.1z"/>
<path id="Rectangle_6" class="st28" d="M459.7,247.2h28.5v3h-28.5V247.2z"/>
<path id="Union_7" class="st29" d="M488.2,228.5h-28.5v5.4c0,7.9,6.4,14.3,14.3,14.3c5.3,0,9.9-2.9,12.3-7.1
	c0.9,0.8,2.1,1.2,3.4,1.2c3,0,5.4-2.4,5.4-5.4c0-3-2.4-5.4-5.4-5.4c-0.5,0-1,0.1-1.5,0.2V228.5z M487.2,239.2c0.7-1.6,1-3.4,1-5.3
	v-0.2c0.4-0.2,0.9-0.3,1.5-0.3c1.9,0,3.4,1.5,3.4,3.4c0,1.9-1.5,3.4-3.4,3.4C488.7,240.3,487.8,239.9,487.2,239.2z"/>
<path id="Rectangle_7" class="st30" d="M459.7,228.5h22.6v5.1c0,7.5-5.1,13.5-11.3,13.5c-6.3,0-11.3-6.1-11.3-13.5V228.5z"/>
<path id="Union_8" class="st31" d="M471.5,197.5c-1.6,0-3,1.3-3,3s1.3,3,3,3l-8.9,0c-1.6,0-3,1.3-3,3c0,1.6,1.3,2.9,3,2.9l6.4,0
	c1.4,0.2,2.5,1.4,2.5,2.9c0,1.5-1.1,2.7-2.5,2.9l-8.4,0c-1.6,0-3,1.3-3,3c0,1.6,1.3,2.9,3,2.9h17.7c-1.6,0-3-1.3-3-2.9
	c0-1.6,1.3-3,3-3h9.8c1.6,0,3-1.3,3-2.9c0-1.6-1.3-3-3-3l-6.4,0c-1.4-0.2-2.5-1.4-2.5-2.9c0-1.5,1.1-2.7,2.5-2.9l8.4,0
	c1.6,0,3-1.3,3-3s-1.3-3-3-3H471.5z"/>
</svg>
