<?xml version="1.0" encoding="UTF-8" standalone="no"?> <svg xmlns:dc="http://purl.org/dc/elements/1.1/" xmlns:cc="http://creativecommons.org/ns#" xmlns:rdf="http://www.w3.org/1999/02/22-rdf-syntax-ns#" xmlns:svg="http://www.w3.org/2000/svg" xmlns="http://www.w3.org/2000/svg" xmlns:sodipodi="http://sodipodi.sourceforge.net/DTD/sodipodi-0.dtd" xmlns:inkscape="http://www.inkscape.org/namespaces/inkscape" viewBox="0 0 3367 2400.0024" version="1.1" id="svg268" sodipodi:docname="website-programmer.svg" inkscape:version="1.0.1 (3bc2e813f5, 2020-09-07)" width="3367" height="2400.0024"><metadata id="metadata272"></metadata><defs id="defs28"><style id="style2">.cls-1,.cls-11,.cls-15,.cls-19,.cls-23,.cls-6{fill:none;}.cls-2,.cls-34{fill:#fff;}.cls-3{fill:#fde8e2;}.cls-33,.cls-4{fill:#5f6aad;}.cls-5{fill:#dbdbdb;}.cls-15,.cls-6{stroke:#5f6aad;}.cls-11,.cls-15,.cls-19,.cls-23,.cls-6{stroke-miterlimit:10;stroke-width:4px;}.cls-7{clip-path:url(#clip-path);}.cls-8{fill:#efefef;}.cls-9{clip-path:url(#clip-path-2);}.cls-10{fill:#d1d1d1;}.cls-11{stroke:#fff;}.cls-12{fill:#d7dcef;}.cls-13{clip-path:url(#clip-path-4);}.cls-14,.cls-35{fill:#494a45;}.cls-15,.cls-19{stroke-linecap:round;}.cls-16,.cls-17{fill:#ffce85;}.cls-16{opacity:0.69;}.cls-18{fill:#999;}.cls-19,.cls-23{stroke:#000;}.cls-20{fill:#f5c5a1;}.cls-21{fill:#f28e49;}.cls-22{clip-path:url(#clip-path-5);}.cls-24{fill:#5b2500;}.cls-25{fill:#230e00;}.cls-26{clip-path:url(#clip-path-6);}.cls-27{fill:#ffc197;}.cls-28{clip-path:url(#clip-path-8);}.cls-29{fill:#d6793a;}.cls-30{clip-path:url(#clip-path-9);}.cls-31{clip-path:url(#clip-path-10);}.cls-32{fill:#e14833;}.cls-33{opacity:0.49;}.cls-34{opacity:0.5;}.cls-35{opacity:0.6;}</style><clipPath id="clip-path"><path class="cls-1" d="m 3316.47,2183.2 a 398.76,398.76 0 0 1 -64.59,3.33 685.43,685.43 0 0 1 -32.05,132.72 603.46,603.46 0 0 1 -77.24,149.62 c -222.72,313.38 -735.55,384.6 -1294.34,140.34 -393.59,-2 -571.77,-131.83 -642.47,-290 -111.5,-249.28 44.17,-568.9 44.17,-568.9 C 568.86,674.19 2153.42,177.5 2639.85,420.67 c 677.77,-36.21 1059.46,786.67 806.69,952 292.8,447.97 142.83,773.57 -130.07,810.53 z" id="path4"></path></clipPath><clipPath id="clip-path-2"><polygon class="cls-1" points="2817.62,2194.2 3022.86,2038.88 3325.18,2038.88 3325.18,2414.19 3183.73,2549.21 2817.62,2549.21 " id="polygon7"></polygon></clipPath><clipPath id="clip-path-4"><circle class="cls-1" cx="1576.6801" cy="975.59998" r="157.5" id="circle10"></circle></clipPath><clipPath id="clip-path-5"><path class="cls-1" d="m 2225.6,2439.54 -101.51,263.74 c 0,0 397.59,127.79 692.5,-0.26 -60.79,-188.85 -156.51,-335 -156.51,-335 z" id="path13"></path></clipPath><clipPath id="clip-path-6"><path class="cls-1" d="m 2387.16,1461.3 c 0,0 -214.71,-18.11 -310.43,46.56 -95.72,64.67 -116.41,481.14 -181.08,499.28 -64.67,18.14 -124.47,237.83 -23.57,253.35 100.9,15.52 194,-73.74 256.13,-174.64 15.73,100.9 82.61,306.59 82.61,306.59 0,0 114.47,142.57 444.34,-59.23 -31,-112.54 -26.27,-130.93 -26.27,-130.93 l 50.39,-197.92 c 0,0 27.17,345.39 166.88,229 139.71,-116.39 52.67,-613.13 -63.75,-707.88 -116.42,-94.75 -265.11,-90.7 -265.11,-90.7 z" id="path16"></path></clipPath><clipPath id="clip-path-8"><path class="cls-1" d="m 2350.56,1369.56 c 0,0 14,43 -9.34,68.47 -23.34,25.47 -57.88,21.39 -57.88,21.39 0,0 -29.53,117.45 77.2,107.41 106.73,-10.04 156.76,-132.09 156.76,-132.09 l -38.7,-1.2 -40.6,-168.76 -25.45,40.6 a 179,179 0 0 1 -34.12,39.91 z" id="path19"></path></clipPath><clipPath id="clip-path-9"><path class="cls-1" d="m 2904.55,1730.34 c 0,0 -247.29,460.71 -118.48,526.56 128.81,65.85 260.76,-454.13 260.76,-454.13 0,0 -84.15,35.34 -142.28,-72.43 z" id="path22"></path></clipPath><clipPath id="clip-path-10"><path class="cls-1" d="m 1689.14,1935.08 c 0,0 120.84,428.53 244.48,367.16 123.64,-61.37 -108.1,-435.1 -108.1,-435.1 0,0 -32.96,81.55 -136.38,67.94 z" id="path25"></path></clipPath></defs><title id="title30">website-programmer-</title><g id="_03" data-name="03" transform="translate(-656.49999,-359.9962)"><path class="cls-3" d="m 3316.47,2183.2 a 398.76,398.76 0 0 1 -64.59,3.33 685.43,685.43 0 0 1 -32.05,132.72 603.46,603.46 0 0 1 -77.24,149.62 c -222.72,313.38 -735.55,384.6 -1294.34,140.34 -393.59,-2 -571.77,-131.83 -642.47,-290 -111.5,-249.28 44.17,-568.9 44.17,-568.9 C 568.86,674.19 2153.42,177.5 2639.85,420.67 c 677.77,-36.21 1059.46,786.67 806.69,952 292.8,447.97 142.83,773.57 -130.07,810.53 z" id="path33" style="opacity:0.526144;fill:#fd6a3e;fill-opacity:1"></path><path class="cls-4" d="m 3219.83,2319.25 a 603.46,603.46 0 0 1 -77.24,149.62 c -222.72,313.38 -735.55,384.6 -1294.34,140.34 -393.59,-2 -571.77,-131.83 -642.47,-290 z" id="path35" style="fill:#1baaa0;fill-opacity:1"></path><path class="cls-5" d="m 1571.25,2052.54 a 62.83,62.83 0 0 1 59,33.37 c 43.62,82.54 158.06,268.42 222.08,291.51 79.81,28.79 157.55,47.16 157.55,47.16 l 1.14,21 -553.67,30 c -32.84,1.12 -59.33,-26.64 -76.62,-54.58 l -184.47,-298 c -13.5,-21.83 1.29,-50.16 26.92,-51.54 z" id="path37"></path><path class="cls-2" d="m 1305.54,2179.35 110.29,174.83 a 37.13,37.13 0 0 0 33.42,17.27 l 231.46,-12.52 c 28.06,-1.52 44.33,-32.45 29.69,-56.43 l -106.82,-175 a 37.13,37.13 0 0 0 -33.71,-17.73 l -234.93,12.71 c -28.3,1.52 -44.52,32.9 -29.4,56.87 z" id="path39"></path><path class="cls-6" d="m 1084.59,1983.2 a 31.25,31.25 0 0 0 3.57,-14.49 v 0 a 31.59,31.59 0 0 0 -31.5,-31.5 H 690 a 31.59,31.59 0 0 0 -31.5,31.5 v 0 a 31.6,31.6 0 0 0 31.5,31.5 h 25" id="path41"></path><path class="cls-6" d="M 714.56,1999.54 A 31.21,31.21 0 0 0 711,2014 v 0 a 31.58,31.58 0 0 0 31.49,31.5 h 366.65 a 31.59,31.59 0 0 0 31.5,-31.5 v 0 a 31.59,31.59 0 0 0 -31.5,-31.5 h -25" id="path43"></path><path class="cls-6" d="m 3965.44,1818 a 31.21,31.21 0 0 0 3.56,-14.49 v 0 a 31.58,31.58 0 0 0 -31.49,-31.5 h -366.65 a 31.59,31.59 0 0 0 -31.5,31.5 v 0 a 31.59,31.59 0 0 0 31.5,31.5 h 25" id="path45"></path><path class="cls-6" d="m 3595.41,1834.31 a 31.25,31.25 0 0 0 -3.57,14.49 v 0 a 31.59,31.59 0 0 0 31.5,31.5 H 3990 a 31.59,31.59 0 0 0 31.5,-31.5 v 0 a 31.6,31.6 0 0 0 -31.5,-31.5 h -25" id="path47"></path><g class="cls-7" clip-path="url(#clip-path)" id="g95"><polygon class="cls-8" points="2817.62,2194.2 3022.86,2038.88 3325.18,2038.88 3325.18,2414.19 3183.73,2549.21 2817.62,2549.21 " id="polygon49"></polygon><g class="cls-9" clip-path="url(#clip-path-2)" id="g53"><polygon class="cls-10" points="3176.33,2188.43 3177.99,2595.29 3396.3,2415.84 3335.11,2032.13 " id="polygon51"></polygon></g><g class="cls-9" clip-path="url(#clip-path-2)" id="g93"><polygon class="cls-2" points="2779.39,2204.97 3171.37,2204.97 3352.47,2013.94 3001.01,1996.57 " id="polygon55"></polygon><polyline class="cls-11" points="2804.2 2223.99 3176.33 2223.99 3352.47 2047.02" id="polyline57"></polyline><polyline class="cls-11" points="2804.2 2243.01 3176.33 2243.01 3352.47 2066.04" id="polyline59"></polyline><polyline class="cls-11" points="2804.2 2262.03 3176.33 2262.03 3352.47 2085.06" id="polyline61"></polyline><polyline class="cls-11" points="2804.2 2281.05 3176.33 2281.05 3352.47 2104.08" id="polyline63"></polyline><polyline class="cls-11" points="2804.2 2300.07 3176.33 2300.07 3352.47 2123.1" id="polyline65"></polyline><polyline class="cls-11" points="2804.2 2319.09 3176.33 2319.09 3352.47 2142.12" id="polyline67"></polyline><polyline class="cls-11" points="2804.2 2338.11 3176.33 2338.11 3352.47 2161.14" id="polyline69"></polyline><polyline class="cls-11" points="2804.2 2357.13 3176.33 2357.13 3352.47 2180.16" id="polyline71"></polyline><polyline class="cls-11" points="2804.2 2376.15 3176.33 2376.15 3352.47 2199.18" id="polyline73"></polyline><polyline class="cls-11" points="2804.2 2395.17 3176.33 2395.17 3352.47 2218.2" id="polyline75"></polyline><polyline class="cls-11" points="2804.2 2414.19 3176.33 2414.19 3352.47 2237.22" id="polyline77"></polyline><polyline class="cls-11" points="2804.2 2433.21 3176.33 2433.21 3352.47 2256.24" id="polyline79"></polyline><polyline class="cls-11" points="2804.2 2452.23 3176.33 2452.23 3352.47 2275.26" id="polyline81"></polyline><polyline class="cls-11" points="2804.2 2471.25 3176.33 2471.25 3352.47 2294.28" id="polyline83"></polyline><polyline class="cls-11" points="2804.2 2490.27 3176.33 2490.27 3352.47 2313.3" id="polyline85"></polyline><polyline class="cls-11" points="2804.2 2509.29 3176.33 2509.29 3352.47 2332.32" id="polyline87"></polyline><polyline class="cls-11" points="2804.2 2528.31 3176.33 2528.31 3352.47 2351.34" id="polyline89"></polyline><polyline class="cls-11" points="2804.2 2547.33 3176.33 2547.33 3352.47 2370.36" id="polyline91"></polyline></g></g><rect class="cls-12" x="2740.52" y="702.52002" width="1011.92" height="708.85999" rx="12" id="rect97" style="opacity:0.588235;fill:#23dccf;fill-opacity:1"></rect><path class="cls-4" d="m 2752.52,702.52 h 987.92 a 12,12 0 0 1 12,12 V 835.36 H 2740.52 V 714.52 a 12,12 0 0 1 12,-12 z" id="path99" style="fill:#1baaa0;fill-opacity:1"></path><rect class="cls-2" x="2810.6201" y="890.45001" width="368.67001" height="448.16" rx="12" id="rect101"></rect><rect class="cls-2" x="3251.8701" y="909.71997" width="447.44" height="50.450001" rx="12" id="rect103"></rect><rect class="cls-2" x="3251.8701" y="992.10999" width="389.32999" height="50.450001" rx="12" id="rect105"></rect><rect class="cls-2" x="3251.8701" y="1074.5" width="447.44" height="50.450001" rx="12" id="rect107"></rect><rect class="cls-2" x="3251.8701" y="1156.89" width="320.78" height="50.450001" rx="12" id="rect109"></rect><circle class="cls-2" cx="3488.6799" cy="768.94" r="33.290001" id="circle111"></circle><circle class="cls-2" cx="3572.6499" cy="768.94" r="33.290001" id="circle113"></circle><circle class="cls-2" cx="3656.6201" cy="768.94" r="33.290001" id="circle115"></circle><rect class="cls-12" x="899.58002" y="687.83002" width="1039.21" height="817.46997" rx="12" id="rect117" style="fill:#e9fcfa;fill-opacity:1"></rect><circle class="cls-4" cx="1576.6801" cy="975.59998" r="157.5" id="circle119" style="fill:#189a91;fill-opacity:1"></circle><g class="cls-13" clip-path="url(#clip-path-4)" id="g123"><path class="cls-2" d="M 1576.68,791.73 V 975.6 h 177.15 c 0,0 -66.4,-255.77 -177.15,-183.87 z" id="path121"></path></g><path class="cls-14" d="m 1600.19,792.17 v 160.61 h 165.75 c 0,0 12.36,-170.9 -165.75,-160.61 z" id="path125"></path><rect class="cls-2" x="1039.6899" y="849.66998" width="232.82001" height="179.28" id="rect127"></rect><line class="cls-15" x1="1067.2" y1="877.62" x2="1249.95" y2="877.62" id="line129"></line><line class="cls-15" x1="1067.2" y1="902.78003" x2="1249.95" y2="902.78003" id="line131"></line><line class="cls-15" x1="1067.2" y1="927.95001" x2="1249.95" y2="927.95001" id="line133"></line><line class="cls-15" x1="1067.2" y1="953.10999" x2="1249.95" y2="953.10999" id="line135"></line><path class="cls-16" d="m 3348.34,1852.12 a 148.15,148.15 0 1 0 -118.31,2.32" id="path137"></path><path class="cls-17" d="m 3230,1852.31 v 26.08 a 12.83,12.83 0 0 0 12.79,12.79 h 92.73 a 12.83,12.83 0 0 0 12.79,-12.79 V 1850" id="path139"></path><ellipse class="cls-14" cx="3290.25" cy="1937.54" rx="32.509998" ry="28.24" id="ellipse141"></ellipse><rect class="cls-18" x="3223.6399" y="1891.1801" width="132.16" height="23.450001" rx="8.3299999" id="rect143"></rect><path class="cls-18" d="m 3335.55,1929.55 h -93.79 a 7.48,7.48 0 0 1 -7.46,-7.46 v 0 a 7.48,7.48 0 0 1 7.46,-7.46 h 93.79 a 7.49,7.49 0 0 1 7.46,7.46 v 0 a 7.49,7.49 0 0 1 -7.46,7.46 z" id="path145"></path><path class="cls-18" d="m 3328.09,1942.34 h -78.87 a 6.42,6.42 0 0 1 -6.4,-6.39 v 0 a 6.42,6.42 0 0 1 6.4,-6.4 h 78.87 a 6.41,6.41 0 0 1 6.39,6.4 v 0 a 6.41,6.41 0 0 1 -6.39,6.39 z" id="path147"></path><polyline class="cls-19" points="3191.66 1719.58 3218.31 1734.5 3240.69 1719.58 3263.07 1734.5 3288.65 1718.51 3315.3 1734.5 3336.62 1718.51 3359 1734.5 3382.45 1718.51" id="polyline149"></polyline><path class="cls-20" d="m 1766.3,1764 63.24,147.45 c 0,0 -87.88,108.65 -131.18,44 -19.86,-76.86 -41.2,-146.7 -41.2,-146.7 0,0 -90.05,16.94 -91.35,-152.3 -24.57,10.56 -68.55,-45.06 -27.16,-74.81 10.35,-41.39 50.45,-27.16 50.45,-27.16 0,0 29.75,-80.2 72.43,-23.29 -16.2,-93.69 -20.6,-160.61 -8.63,-196.66 a 8.48,8.48 0 0 1 16.24,0.48 c 15.23,57.46 44.56,172.9 44.56,172.9 0,0 2.59,-28.46 25.87,-24.14 23.28,4.32 36.22,131.93 36.22,131.93 z" id="path151"></path><path d="m 1712.58,1536.63 7.76,80.19 c 0,0 -23.57,59.81 -22,111.24 8.64,-51.74 31,-113.82 31,-113.82 z" id="path153"></path><path d="m 1600.05,1576.73 c 0,0 27.17,45.27 49.15,24.57 -19.83,7.76 -49.15,-24.57 -49.15,-24.57 z" id="path155"></path><path d="m 1550.9,1598.07 c 0,0 27.16,45.27 49.15,24.57 -18.54,12.29 -49.15,-24.57 -49.15,-24.57 z" id="path157"></path><path d="m 1589.27,1652.31 86.31,-45.59 c 0,0 -75.53,28.21 -86.31,45.59 z" id="path159"></path><path d="m 1662.57,1536.63 9.49,57.34 c 0,0 -14.23,-33.2 -9.49,-57.34 z" id="path161"></path><path class="cls-21" d="m 2225.6,2439.54 -101.51,263.74 c 0,0 397.59,127.79 692.5,-0.26 -60.79,-188.85 -156.51,-335 -156.51,-335 z" id="path163" style="fill:#fd6a3e;fill-opacity:1"></path><g class="cls-22" clip-path="url(#clip-path-5)" id="g167"><path class="cls-23" d="m 2597.08,2340.56 c 0,0 143,230.84 151.82,402.87" id="path165"></path></g><path class="cls-2" d="m 2210.82,2392.44 5.17,59.69 c 0,0 206.75,155.38 459,-63.85 l -23.28,-69.85 c 0,0 -319.87,141.68 -440.89,74.01 z" id="path169"></path><path class="cls-24" d="m 2107.3,1174.29 c 0,0 36.82,302.65 -46.61,430.7 -83.43,128.05 285.2,-23.4 285.2,-23.4 l 27.34,-306.42 z" id="path171"></path><path class="cls-20" d="m 2110.19,1091.51 c 0,0 16,173.1 34,209.21 18,36.11 80.6,116.1 133.36,101.8 52.76,-14.3 102,-44.74 143.11,-102.37 41.11,-57.63 52.93,-239.23 52.93,-239.23 L 2227.34,914.31 c 0,0 -141.87,-1.69 -117.15,177.2 z" id="path173"></path><path class="cls-19" d="m 2226.24,1164.85 c 0,0 8.81,61.58 -8.31,80.23 17.39,12.11 24.4,12.48 24.4,12.48" id="path175"></path><path class="cls-19" d="m 2267.41,1049.32 c 0,0 39.46,-48.45 105.82,-6.35" id="path177"></path><path class="cls-19" d="m 2176.1,1066.21 c 0,0 -41.94,-21.44 -64.33,16.73" id="path179"></path><ellipse class="cls-25" cx="2326.28" cy="1129.42" rx="13.4" ry="25.98" transform="matrix(1,-0.06,0.06,1,-68.24,152.97)" id="ellipse181"></ellipse><ellipse class="cls-25" cx="2167.1799" cy="1159.26" rx="13.4" ry="25.98" transform="rotate(-3.71,2168.0913,1159.7538)" id="ellipse183"></ellipse><path class="cls-19" d="m 2230.13,1322.46 c 0,0 25.1,21.56 67.35,-9.48" id="path185"></path><path class="cls-24" d="m 2230.13,997.74 c 0,0 11.52,-37.45 50.49,-37.63 28.81,-0.13 53.55,20.55 59.8,48.67 23.3,104.8 77.72,220.4 110.23,171.33 39.74,-60 -12.65,84.67 -12.65,84.67 l 10.71,225.74 149.39,34.92 c 0,0 126.11,-611.13 -132.1,-721.71 -196.91,-84.34 -298.82,-1.33 -306.37,68.12 -97,0 -260.58,261.81 -35.23,339.36 -17.1,-151 -17.86,-278.02 105.73,-213.47 z" id="path187"></path><path class="cls-21" d="m 2387.16,1461.3 c 0,0 -214.71,-18.11 -310.43,46.56 -95.72,64.67 -116.41,481.14 -181.08,499.28 -64.67,18.14 -124.47,237.83 -23.57,253.35 100.9,15.52 194,-73.74 256.13,-174.64 15.73,100.9 82.61,306.59 82.61,306.59 0,0 114.47,142.57 444.34,-59.23 -31,-112.54 -26.27,-130.93 -26.27,-130.93 l 50.39,-197.92 c 0,0 27.17,345.39 166.88,229 139.71,-116.39 52.67,-613.13 -63.75,-707.88 -116.42,-94.75 -265.11,-90.7 -265.11,-90.7 z" id="path189" style="fill:#fd6a3e;fill-opacity:1"></path><g class="cls-26" clip-path="url(#clip-path-6)" id="g209"><polygon class="cls-27" points="2098.8,1598.47 2007.54,1662.16 1998.01,1551.28 " id="polygon191"></polygon><polygon class="cls-27" points="2437.24,1646.81 2345.99,1710.49 2336.46,1599.62 " id="polygon193"></polygon><polygon class="cls-27" points="2738.97,1579.12 2647.71,1642.81 2638.19,1531.94 " id="polygon195"></polygon><polygon class="cls-27" points="2184.64,1858.89 2093.39,1922.58 2083.86,1811.7 " id="polygon197"></polygon><polygon class="cls-27" points="2555.13,2029.72 2463.87,2093.41 2454.35,1982.53 " id="polygon199"></polygon><polygon class="cls-27" points="2701.78,1843.3 2610.52,1906.99 2601,1796.12 " id="polygon201"></polygon><polygon class="cls-27" points="2341.47,2156.87 2250.22,2220.56 2240.69,2109.68 " id="polygon203"></polygon><polygon class="cls-27" points="2559.03,2313.76 2467.78,2377.44 2458.25,2266.57 " id="polygon205"></polygon><polygon class="cls-27" points="2262.41,2362.51 2171.16,2426.2 2161.63,2315.33 " id="polygon207"></polygon></g><path d="m 2134.25,1730.34 c 0,0 -143.25,141.66 -22.48,245.66 -31.84,-99 -44.77,-101.11 22.48,-245.66 z" id="path211"></path><g class="cls-26" clip-path="url(#clip-path-6)" id="g215"><path d="m 2641.29,1797.91 38,206.45 -4.29,166.07 c 0,0 -106.5,-56.19 -33.71,-372.52 z" id="path213"></path></g><path class="cls-20" d="m 2350.56,1369.56 c 0,0 14,43 -9.34,68.47 -23.34,25.47 -57.88,21.39 -57.88,21.39 0,0 -29.53,117.45 77.2,107.41 106.73,-10.04 156.76,-132.09 156.76,-132.09 l -38.7,-1.2 -40.6,-168.76 -25.45,40.6 a 179,179 0 0 1 -34.12,39.91 z" id="path217"></path><g class="cls-28" clip-path="url(#clip-path-8)" id="g221"><path d="m 2311.07,1352.42 31,62.92 c 0,0 75.07,31.2 111.26,-86.68 36.19,-117.88 -57,-117.45 -57,-117.45 z" id="path219"></path></g><circle class="cls-17" cx="2368.1101" cy="2472.1399" r="42.040001" transform="rotate(-45,2368.1122,2472.1358)" id="circle223"></circle><path class="cls-29" d="m 2904.55,1730.34 c 0,0 -247.29,460.71 -118.48,526.56 128.81,65.85 260.76,-454.13 260.76,-454.13 0,0 -84.15,35.34 -142.28,-72.43 z" id="path225" style="fill:#fd6a3e;fill-opacity:1"></path><g class="cls-30" clip-path="url(#clip-path-9)" id="g229"><path d="m 2918.11,1702.83 c 0,0 -184,410.66 -169.21,559.83 14,142.19 -11,-367 -11,-367 z" id="path227"></path></g><path class="cls-29" d="m 1689.14,1935.08 c 0,0 120.84,428.53 244.48,367.16 123.64,-61.37 -108.1,-435.1 -108.1,-435.1 0,0 -32.96,81.55 -136.38,67.94 z" id="path231" style="fill:#fd6a3e;fill-opacity:1"></path><g class="cls-31" clip-path="url(#clip-path-10)" id="g235"><path d="m 1810.55,1867.14 c 0,0 200.45,389.06 159.38,451.29 -41.07,62.23 57.88,-69.69 57.88,-69.69 l -149.38,-469.5 z" id="path233"></path></g><path class="cls-20" d="m 2962.75,1602.28 -64.89,146.16 c 0,0 63.6,135.82 149,54.33 33.63,-133.23 55.62,-200.49 55.62,-200.49 l 121.52,-94.42 36.22,-67.26 c 0,0 -1.3,-27.16 -37.51,15.52 C 3238.26,1382.4 3246,1313 3246,1313 c 0,0 -18.11,-18.54 -45.27,35.79 16.81,-38.84 22,-63.38 22,-63.38 0,0 -22,-6.47 -40.1,20.69 3.88,-31 -2.59,-28.46 -2.59,-28.46 0,0 -19.4,2.08 -40.09,52.13 3.65,-8.38 1.29,-23.67 1.29,-23.67 0,0 -31,-6.82 -55.62,98.13 -65.96,41.54 -144.86,99.77 -122.87,198.05 z" id="path237"></path><path d="m 3177.64,1318.47 -35.35,116.24 c 0,0 37.31,-77 35.35,-116.24 z" id="path239"></path><path d="m 3138,1344.34 -16.39,73.29 c 0,0 17.23,-17.24 16.39,-73.29 z" id="path241"></path><path d="m 3212.14,1478 -69.85,70.71 c 0,0 48.37,-37.03 69.85,-70.71 z" id="path243"></path><ellipse class="cls-20" cx="2459.1499" cy="1200.67" rx="53.849998" ry="41.790001" transform="rotate(-47.4,2458.8721,1200.6578)" id="ellipse245"></ellipse><path d="m 2440.44,1199.27 c 0,0 14.34,-16.91 19.55,2.6 5.21,19.51 -23.47,28.62 -23.47,28.62 0,0 18.26,0 28.69,-9.11 9.66,-8.43 10.43,-36.42 -5.22,-35.12 -15.65,1.3 -19.55,13.01 -19.55,13.01 z" id="path247"></path><path d="m 3203.15,1352.62 -27.15,91.84 c 0,0 28.44,-50.46 27.15,-91.84 z" id="path251"></path><rect class="cls-33" x="1092.87" y="1207.9399" width="1000.66" height="655.94" rx="12" id="rect253" style="opacity:0.683006;fill:#1fc6ba;fill-opacity:1"></rect><rect class="cls-34" x="1186" y="1274.3101" width="822.64001" height="52.18" rx="12" id="rect255"></rect><rect class="cls-34" x="1186" y="1447.63" width="822.64001" height="52.18" rx="12" id="rect257"></rect><rect class="cls-34" x="1186" y="1620.95" width="822.64001" height="52.18" rx="12" id="rect259"></rect><circle class="cls-35" cx="1643.8" cy="1300.4" r="31.58" transform="rotate(-80.78,1643.8673,1300.3981)" id="circle261"></circle><circle class="cls-35" cx="1387.6" cy="1473.72" r="31.58" transform="rotate(-45,1387.5946,1473.7195)" id="circle263"></circle><circle class="cls-35" cx="1465.21" cy="1647.04" r="31.58" transform="rotate(-76.72,1465.1298,1647.0278)" id="circle265"></circle></g></svg> 